<?xml version="1.0" encoding="UTF-8"?>
<svg xmlns="http://www.w3.org/2000/svg" xmlns:xlink="http://www.w3.org/1999/xlink" width="600pt" height="599.999999pt" viewBox="0 0 600 599.999999" version="1.2">
<defs>
<clipPath id="clip1">
  <path d="M 85.070312 148 L 514.820312 148 L 514.820312 451 L 85.070312 451 Z M 85.070312 148 "/>
</clipPath>
</defs>
<g id="surface1">
<g clip-path="url(#clip1)" clip-rule="nonzero">
<path style=" stroke:none;fill-rule:nonzero;fill:rgb(22.349548%,20.779419%,21.179199%);fill-opacity:1;" d="M 498.808594 279.726562 L 343.9375 153.441406 C 334.511719 145.753906 320.457031 148.320312 314.351562 158.847656 L 307.417969 170.800781 C 302.53125 179.222656 304.484375 189.957031 312.027344 196.105469 L 409.695312 275.75 L 109.121094 275.75 C 95.941406 275.75 85.257812 286.449219 85.257812 299.652344 C 85.257812 312.851562 95.941406 323.554688 109.121094 323.554688 L 409.695312 323.554688 L 312.027344 403.195312 C 304.484375 409.347656 302.53125 420.078125 307.417969 428.507812 L 314.351562 440.457031 C 320.457031 450.980469 334.511719 453.550781 343.9375 445.867188 L 498.808594 319.578125 C 504.8125 314.679688 514.503906 308.441406 514.339844 299.75 C 514.179688 292.179688 504.8125 284.621094 498.808594 279.726562 "/>
</g>
</g>
</svg>
