<?xml version="1.0" encoding="UTF-8"?>
<svg xmlns="http://www.w3.org/2000/svg" xmlns:xlink="http://www.w3.org/1999/xlink" width="600pt" height="599.999999pt" viewBox="0 0 600 599.999999" version="1.2">
<defs>
<clipPath id="clip1">
  <path d="M 368 265 L 543.070312 265 L 543.070312 509 L 368 509 Z M 368 265 "/>
</clipPath>
<clipPath id="clip2">
  <path d="M 57.070312 290 L 74 290 L 74 335 L 57.070312 335 Z M 57.070312 290 "/>
</clipPath>
<clipPath id="clip3">
  <path d="M 526 268 L 543.070312 268 L 543.070312 298 L 526 298 Z M 526 268 "/>
</clipPath>
<clipPath id="clip4">
  <path d="M 288 525 L 334 525 L 334 542.609375 L 288 542.609375 Z M 288 525 "/>
</clipPath>
</defs>
<g id="surface1">
<path style=" stroke:none;fill-rule:nonzero;fill:rgb(61.959839%,87.449646%,86.669922%);fill-opacity:1;" d="M 462.207031 250.773438 C 460.117188 250.621094 457.992188 250.550781 455.824219 250.550781 C 433.117188 250.550781 412.042969 257.863281 395.03125 270.300781 C 394.84375 270.375 394.652344 270.488281 394.578125 270.605469 L 394.535156 270.640625 C 393.210938 271.625 391.917969 272.652344 390.664062 273.675781 C 382.953125 279.929688 376.199219 287.285156 370.617188 295.472656 L 370.617188 295.511719 C 366.96875 300.855469 363.816406 306.582031 361.269531 312.609375 C 360.703125 313.824219 360.210938 315.109375 359.753906 316.363281 C 359.601562 316.742188 359.449219 317.082031 359.335938 317.425781 C 358.84375 318.785156 358.351562 320.152344 357.929688 321.554688 C 357.890625 321.632812 357.890625 321.707031 357.855469 321.785156 C 357.402344 323.222656 356.984375 324.703125 356.566406 326.183594 C 356.523438 326.371094 356.488281 326.558594 356.449219 326.75 C 356.105469 327.960938 355.84375 329.175781 355.578125 330.390625 C 355.425781 330.996094 355.3125 331.605469 355.195312 332.210938 C 354.851562 333.914062 354.550781 335.660156 354.324219 337.402344 C 354.132812 338.617188 353.980469 339.828125 353.867188 341.042969 C 353.828125 341.269531 353.792969 341.5 353.792969 341.765625 C 353.640625 343.242188 353.527344 344.71875 353.449219 346.199219 L 353.449219 346.503906 C 353.335938 348.171875 353.296875 349.875 353.296875 351.582031 C 353.296875 352.757812 353.335938 353.933594 353.375 355.144531 C 353.410156 356.246094 353.449219 357.34375 353.5625 358.445312 C 353.601562 358.972656 353.640625 359.46875 353.679688 360 C 354.742188 372.128906 358.085938 384.035156 363.742188 395.523438 C 365.527344 399.199219 367.535156 402.839844 369.816406 406.441406 C 369.96875 406.667969 370.121094 406.894531 370.273438 407.121094 C 371.867188 409.699219 375.585938 415.730469 385.347656 431.234375 C 386.410156 432.941406 387.511719 434.722656 388.730469 436.65625 C 388.917969 436.957031 389.105469 437.261719 389.335938 437.601562 C 390.207031 438.96875 391.082031 440.371094 391.992188 441.847656 C 365.527344 458.949219 334.007812 468.917969 300.136719 468.917969 C 206.605469 468.917969 130.773438 393.210938 130.773438 299.832031 C 130.773438 206.457031 206.605469 130.746094 300.136719 130.746094 C 316.652344 130.746094 332.640625 133.136719 347.753906 137.570312 C 402.472656 153.53125 445.726562 196.335938 462.207031 250.773438 "/>
<path style=" stroke:none;fill-rule:nonzero;fill:rgb(58.81958%,83.918762%,40.779114%);fill-opacity:1;" d="M 462.210938 250.777344 C 460.121094 250.621094 457.996094 250.546875 455.828125 250.546875 C 433.121094 250.546875 412.046875 257.863281 395.03125 270.296875 C 394.84375 270.375 394.652344 270.488281 394.539062 270.640625 C 393.210938 271.585938 391.917969 272.609375 390.664062 273.671875 C 389.488281 274.582031 388.351562 275.570312 387.25 276.550781 C 383.300781 278.566406 378.820312 279.546875 373.347656 280.875 C 370.160156 281.671875 369.628906 287.394531 370.613281 295.507812 C 366.96875 300.855469 363.816406 306.578125 361.273438 312.609375 C 354.558594 327.363281 352.296875 343.914062 353.679688 359.996094 C 354.363281 367.960938 356.109375 375.808594 358.804688 383.503906 C 359.679688 386.082031 360.667969 388.621094 361.769531 391.160156 C 362.414062 392.601562 363.097656 394.042969 363.742188 395.519531 C 351.398438 409.964844 337.539062 423.574219 329.257812 423.042969 C 311.792969 421.945312 314.679688 385.777344 307.085938 372.507812 C 299.488281 359.238281 312.171875 330.160156 273.402344 332.058594 C 234.667969 333.953125 227.074219 288.800781 243.515625 265.710938 C 259.957031 242.621094 311.527344 258.128906 327.363281 260.480469 C 343.160156 262.792969 348.859375 263.816406 353.300781 247.25 C 357.742188 230.679688 329.867188 225.902344 303.324219 228.441406 C 276.746094 230.949219 280.46875 211.003906 291.289062 210.742188 C 302.074219 210.476562 299.71875 181.167969 316.578125 181.054688 C 318.386719 181.042969 320.144531 181.054688 321.839844 181.070312 C 335.992188 181.183594 345.605469 181.292969 340.007812 166.496094 C 334.804688 152.734375 344.414062 141.058594 347.753906 137.570312 C 402.476562 153.53125 445.730469 196.332031 462.210938 250.777344 "/>
<path style=" stroke:none;fill-rule:nonzero;fill:rgb(17.248535%,23.919678%,32.548523%);fill-opacity:1;" d="M 393.457031 253.902344 C 389.578125 258.488281 388.117188 264.472656 389.441406 270.320312 C 389.699219 271.457031 390.117188 272.566406 390.605469 273.683594 C 395.050781 270.0625 399.832031 266.824219 404.859375 263.972656 C 404.929688 263.871094 405.003906 263.757812 405.058594 263.6875 C 405.445312 263.230469 406.296875 262.554688 407.585938 262.460938 C 414.054688 259.046875 420.9375 256.316406 428.132812 254.324219 C 422.375 249.683594 414.839844 247.605469 408.847656 247.277344 C 402.894531 246.949219 397.296875 249.367188 393.457031 253.902344 "/>
<path style=" stroke:none;fill-rule:nonzero;fill:rgb(17.248535%,23.919678%,32.548523%);fill-opacity:1;" d="M 361.023438 285.464844 C 360.367188 292.417969 361.746094 299.261719 364.8125 305.148438 C 370.222656 294.890625 377.359375 285.664062 385.851562 277.835938 C 381.257812 273.332031 375.035156 271.5625 369.785156 273.367188 C 364.855469 275.058594 361.578125 279.582031 361.023438 285.464844 "/>
<path style=" stroke:none;fill-rule:nonzero;fill:rgb(17.248535%,23.919678%,32.548523%);fill-opacity:1;" d="M 300.136719 121.648438 C 201.554688 121.648438 121.65625 201.414062 121.65625 299.832031 C 121.65625 398.25 201.554688 478.015625 300.136719 478.015625 C 335.792969 478.015625 368.984375 467.554688 396.855469 449.546875 C 393.855469 444.769531 391.160156 440.484375 388.765625 436.65625 C 368.792969 449.582031 345.855469 458.265625 321.210938 461.488281 C 321.058594 461.109375 320.867188 460.765625 320.640625 460.425781 C 292.390625 418.609375 246.59375 431.726562 225.628906 444.84375 C 211.769531 437.679688 199.050781 428.65625 187.847656 418.042969 C 189.289062 417.128906 190.46875 416.109375 191.417969 415.160156 C 198.515625 407.652344 197.71875 396.164062 196.582031 389.988281 C 196.011719 386.800781 196.769531 383.351562 197.605469 379.332031 L 197.71875 378.726562 C 198.214844 376.527344 199.050781 374.175781 199.960938 371.710938 C 201.78125 366.632812 203.871094 360.871094 203.378906 354.273438 C 202.429688 341.648438 193.730469 334.21875 186.023438 327.621094 C 179.835938 322.3125 174.480469 317.726562 173.722656 311.398438 C 172.960938 304.574219 172.886719 297.257812 173.492188 289.597656 C 173.53125 289.332031 173.53125 289.027344 173.53125 288.761719 C 173.074219 274.886719 160.960938 265.863281 140.835938 264.121094 C 142.125 258.433594 143.722656 252.824219 145.582031 247.363281 C 147.253906 247.96875 148.847656 248.234375 150.214844 248.273438 L 150.820312 248.273438 C 160.695312 248.273438 169.542969 239.289062 176.152344 231.402344 C 180.785156 225.90625 186.707031 223.136719 193.617188 219.953125 C 194.796875 219.421875 195.972656 218.890625 197.148438 218.324219 C 203.53125 215.289062 212.453125 210.019531 216.097656 199.40625 C 218.566406 192.351562 217.65625 185.1875 216.628906 179.046875 C 216.476562 178.210938 216.328125 177.113281 216.175781 175.898438 C 215.492188 170.402344 214.769531 165.664062 213.289062 161.871094 C 232.617188 149.703125 254.644531 141.472656 278.261719 138.328125 C 278.335938 139.503906 278.300781 140.757812 278.300781 141.363281 L 278.300781 142.347656 C 278.335938 146.898438 278.222656 150.234375 276.554688 151.636719 C 274.996094 152.886719 272.566406 153.796875 270.023438 154.78125 C 268.503906 155.351562 266.949219 155.957031 265.503906 156.605469 C 258.859375 159.636719 251.300781 163.347656 245.605469 169.1875 C 240.554688 174.34375 239.148438 179.539062 241.425781 184.617188 C 242.679688 187.464844 245.453125 189.132812 248.378906 189.132812 C 249.402344 189.132812 250.464844 188.902344 251.453125 188.449219 C 254.644531 187.046875 256.351562 183.707031 255.859375 180.410156 C 256.007812 180.257812 256.199219 180.03125 256.464844 179.804688 C 260.339844 175.824219 266.414062 172.867188 271.808594 170.402344 C 272.984375 169.871094 274.195312 169.417969 275.414062 168.960938 C 278.832031 167.675781 282.703125 166.195312 286.199219 163.3125 C 293.605469 157.207031 293.527344 148.222656 293.492188 142.269531 L 293.492188 141.4375 C 293.527344 140.183594 293.527344 138.632812 293.414062 136.964844 C 295.613281 136.890625 297.859375 136.8125 300.136719 136.8125 C 313.273438 136.8125 326.074219 138.40625 338.296875 141.324219 C 333.820312 147.203125 330.664062 155.277344 333.058594 165.132812 C 333.097656 165.320312 333.171875 165.550781 333.210938 165.738281 C 334.160156 168.582031 334.574219 172.449219 334.082031 173.890625 C 333.96875 173.925781 333.78125 173.925781 333.515625 173.925781 C 328.425781 173.546875 296.335938 171.921875 293.867188 191.820312 C 293.832031 192.203125 293.792969 192.582031 293.753906 193 C 293.335938 199.898438 291.78125 202.4375 291.285156 203.003906 C 290.90625 203.347656 289.578125 204.03125 288.742188 204.484375 C 285.972656 205.886719 282.554688 207.667969 280.464844 211.007812 C 278.792969 213.734375 273.703125 221.960938 277.957031 229.28125 C 282.859375 237.617188 294.628906 237.164062 309.589844 236.632812 C 322.769531 236.140625 339.210938 235.496094 345.402344 241.941406 C 346.238281 242.773438 348.703125 245.316406 348.285156 252.59375 C 347.90625 253.84375 345.097656 255.515625 338.679688 255.171875 L 337.765625 255.132812 C 320.335938 254.261719 315.933594 253.390625 314.867188 253.085938 C 300.703125 248.765625 283.121094 243.382812 264.703125 248.121094 C 244.617188 253.277344 228.554688 271.964844 226.542969 292.59375 C 224.527344 313.292969 231.515625 327.546875 247.351562 334.941406 L 249.023438 335.734375 C 256.503906 339.261719 264.285156 342.898438 274.277344 342.105469 C 274.578125 342.066406 274.882812 342.027344 275.148438 341.988281 C 278.261719 341.382812 288.210938 340.585938 292.804688 344.757812 C 293.679688 345.554688 296.335938 347.941406 295.578125 355.753906 C 295.007812 361.4375 297.328125 365.988281 298.996094 369.285156 C 299.679688 370.613281 300.328125 371.863281 300.664062 372.925781 C 301.84375 376.527344 301.996094 380.886719 302.148438 385.4375 C 302.300781 389.683594 302.414062 394.082031 303.402344 398.59375 C 305.714844 409.472656 309.933594 418.191406 315.96875 424.449219 C 319.804688 428.46875 324.550781 430.476562 329.753906 430.476562 C 335.074219 430.476562 340.878906 428.351562 346.691406 424.144531 C 353.261719 419.367188 360.738281 413.492188 366.589844 406.25 C 367.160156 405.566406 367.730469 404.769531 368.371094 403.976562 C 365.183594 398.628906 362.488281 393.210938 360.285156 387.710938 C 359.410156 390.707031 357.4375 393.398438 354.742188 396.773438 C 350.03125 402.609375 343.5 407.691406 337.730469 411.859375 C 334.3125 414.363281 329.640625 416.789062 326.910156 413.945312 C 322.882812 409.777344 319.957031 403.519531 318.246094 395.40625 C 317.566406 392.261719 317.449219 388.699219 317.335938 384.945312 C 317.148438 379.523438 316.957031 373.910156 315.132812 368.261719 C 314.414062 366.027344 313.425781 364.09375 312.554688 362.386719 C 311.300781 359.996094 310.578125 358.445312 310.691406 357.230469 C 311.945312 344.492188 307.195312 337.289062 302.984375 333.496094 C 292.578125 324.09375 276.25 326.371094 272.71875 327.015625 C 266.949219 327.355469 262.085938 325.121094 255.476562 322.007812 L 253.808594 321.214844 C 243.894531 316.589844 240.25 308.476562 241.65625 294.070312 C 243.0625 279.816406 254.605469 266.355469 268.503906 262.792969 C 281.71875 259.417969 294.746094 262.792969 310.425781 267.570312 C 314.148438 268.707031 322.351562 269.542969 337.007812 270.261719 L 337.882812 270.339844 C 346.5 270.792969 353.261719 268.859375 357.894531 264.6875 C 362.90625 260.140625 363.402344 254.71875 363.4375 253.882812 C 364.082031 244.480469 361.691406 236.933594 356.335938 231.363281 C 345.4375 220.105469 325.273438 220.863281 309.023438 221.46875 C 303.628906 221.660156 295.917969 221.960938 292.121094 221.316406 C 292.390625 220.789062 292.695312 220.140625 293.1875 219.34375 C 293.71875 218.964844 294.894531 218.359375 295.730469 217.941406 C 298.046875 216.730469 300.628906 215.363281 302.605469 213.089844 C 308.074219 206.796875 308.71875 197.433594 308.945312 193.753906 C 308.945312 193.753906 308.945312 193.714844 308.945312 193.679688 C 309.324219 190.53125 321.476562 188.183594 332.566406 189.09375 L 333.097656 189.09375 C 338.679688 189.09375 343.386719 187.046875 346.273438 183.066406 C 351.78125 175.519531 348.738281 164.300781 347.753906 161.265625 C 345.96875 153.230469 352.199219 148.074219 354.855469 146.25 C 402.703125 163.3125 440.332031 202.019531 455.789062 250.546875 L 455.824219 250.546875 C 461.332031 250.546875 466.726562 251 472.003906 251.796875 C 451.003906 176.734375 382.042969 121.648438 300.136719 121.648438 M 303.328125 462.777344 C 302.261719 462.816406 301.199219 462.851562 300.136719 462.851562 C 280.238281 462.851562 261.175781 459.289062 243.515625 452.730469 C 257.757812 446.777344 283.769531 440.597656 303.328125 462.777344 M 158.339844 288.914062 C 157.65625 297.332031 157.773438 305.480469 158.644531 313.101562 C 160.050781 325.347656 168.59375 332.664062 176.152344 339.148438 C 182.378906 344.453125 187.769531 349.078125 188.226562 355.410156 C 188.492188 358.746094 187.164062 362.386719 185.683594 366.558594 C 184.617188 369.398438 183.554688 372.359375 182.871094 375.578125 L 182.757812 376.1875 C 181.695312 381.039062 180.554688 386.535156 181.65625 392.675781 C 182.605469 397.949219 182.074219 402.914062 180.367188 404.734375 C 179.453125 405.683594 177.785156 405.871094 176.1875 405.796875 C 151.695312 377.285156 136.847656 340.246094 136.847656 299.832031 C 136.847656 292.816406 137.339844 285.917969 138.214844 279.132812 C 143.871094 279.585938 157.695312 281.410156 158.339844 288.914062 M 201.746094 194.476562 C 200.339844 198.570312 197.035156 201.605469 190.65625 204.597656 C 189.519531 205.167969 188.378906 205.695312 187.238281 206.191406 C 179.417969 209.792969 171.328125 213.546875 164.53125 221.660156 C 156.328125 231.402344 152.453125 232.878906 151.203125 233.109375 C 162.253906 208.652344 179.152344 187.386719 200.113281 171.125 C 200.566406 173.511719 200.910156 176.242188 201.136719 177.792969 C 201.289062 179.238281 201.480469 180.5625 201.632812 181.585938 C 202.390625 186.0625 203.035156 190.761719 201.746094 194.476562 "/>
<path style=" stroke:none;fill-rule:nonzero;fill:rgb(58.81958%,83.918762%,40.779114%);fill-opacity:1;" d="M 303.324219 462.777344 C 302.261719 462.8125 301.199219 462.851562 300.136719 462.851562 C 280.238281 462.851562 261.175781 459.289062 243.515625 452.730469 C 257.757812 446.777344 283.769531 440.597656 303.324219 462.777344 "/>
<path style=" stroke:none;fill-rule:nonzero;fill:rgb(58.81958%,83.918762%,40.779114%);fill-opacity:1;" d="M 188.226562 355.410156 C 188.492188 358.746094 187.164062 362.386719 185.683594 366.558594 C 184.617188 369.398438 183.558594 372.355469 182.871094 375.578125 L 182.757812 376.1875 C 181.695312 381.039062 180.558594 386.535156 181.65625 392.675781 C 182.605469 397.949219 182.074219 402.914062 180.367188 404.730469 C 179.453125 405.679688 177.785156 405.871094 176.1875 405.792969 C 151.695312 377.285156 136.847656 340.246094 136.847656 299.832031 C 136.847656 292.816406 137.34375 285.917969 138.214844 279.132812 C 143.875 279.585938 157.695312 281.40625 158.339844 288.914062 C 157.660156 297.328125 157.773438 305.480469 158.644531 313.101562 C 160.050781 325.34375 168.59375 332.660156 176.152344 339.148438 C 182.378906 344.453125 187.769531 349.078125 188.226562 355.410156 "/>
<path style=" stroke:none;fill-rule:nonzero;fill:rgb(58.81958%,83.918762%,40.779114%);fill-opacity:1;" d="M 201.746094 194.476562 C 200.339844 198.570312 197.035156 201.601562 190.65625 204.597656 C 189.519531 205.167969 188.378906 205.695312 187.238281 206.1875 C 179.417969 209.789062 171.328125 213.542969 164.53125 221.65625 C 156.328125 231.402344 152.457031 232.878906 151.203125 233.105469 C 162.253906 208.652344 179.152344 187.382812 200.113281 171.121094 C 200.570312 173.511719 200.910156 176.242188 201.136719 177.792969 C 201.289062 179.234375 201.480469 180.5625 201.632812 181.585938 C 202.390625 186.058594 203.035156 190.761719 201.746094 194.476562 "/>
<g clip-path="url(#clip1)" clip-rule="nonzero">
<path style=" stroke:none;fill-rule:nonzero;fill:rgb(17.248535%,23.919678%,32.548523%);fill-opacity:1;" d="M 455.828125 265.710938 C 407.675781 265.710938 368.488281 304.230469 368.488281 351.582031 C 368.488281 367.65625 373.273438 383.390625 382.6875 398.402344 L 382.726562 398.402344 C 385.007812 402.15625 395.753906 419.292969 449.371094 504.78125 C 450.777344 507.019531 453.207031 508.347656 455.828125 508.347656 C 458.449219 508.347656 460.878906 506.980469 462.285156 504.78125 C 462.285156 504.78125 526.230469 402.34375 526.652344 401.664062 C 531.890625 393.703125 538.800781 381 541.761719 365.796875 C 542.714844 360.984375 543.167969 356.207031 543.167969 351.582031 C 543.167969 304.230469 503.980469 265.710938 455.828125 265.710938 M 526.839844 362.917969 C 524.371094 375.65625 518.488281 386.496094 513.929688 393.398438 C 513.890625 393.472656 513.816406 393.550781 455.828125 486.472656 C 439.160156 459.894531 396.019531 391.085938 395.566406 390.363281 C 387.664062 377.816406 383.679688 364.734375 383.679688 351.582031 C 383.679688 312.609375 416.03125 280.875 455.828125 280.875 C 495.625 280.875 527.976562 312.609375 527.976562 351.582031 C 527.976562 355.222656 527.597656 359.050781 526.839844 362.917969 "/>
</g>
<path style=" stroke:none;fill-rule:nonzero;fill:rgb(95.289612%,36.859131%,32.159424%);fill-opacity:1;" d="M 527.980469 351.582031 C 527.980469 355.21875 527.597656 359.050781 526.839844 362.917969 C 524.371094 375.65625 518.484375 386.496094 513.929688 393.398438 C 513.890625 393.472656 513.816406 393.550781 455.832031 486.472656 C 439.15625 459.894531 396.019531 391.085938 395.5625 390.363281 C 387.664062 377.816406 383.675781 364.738281 383.675781 351.582031 C 383.675781 312.609375 416.03125 280.875 455.832031 280.875 C 495.625 280.875 527.980469 312.609375 527.980469 351.582031 "/>
<path style=" stroke:none;fill-rule:nonzero;fill:rgb(17.248535%,23.919678%,32.548523%);fill-opacity:1;" d="M 455.828125 307.414062 C 432.78125 307.414062 414.058594 326.105469 414.058594 349.117188 C 414.058594 372.128906 432.78125 390.820312 455.828125 390.820312 C 478.878906 390.820312 497.601562 372.128906 497.601562 349.117188 C 497.601562 326.105469 478.878906 307.414062 455.828125 307.414062 M 455.828125 375.65625 C 441.171875 375.65625 429.246094 363.75 429.246094 349.117188 C 429.246094 334.484375 441.171875 322.578125 455.828125 322.578125 C 470.484375 322.578125 482.410156 334.484375 482.410156 349.117188 C 482.410156 363.75 470.484375 375.65625 455.828125 375.65625 "/>
<path style=" stroke:none;fill-rule:nonzero;fill:rgb(89.408875%,93.328857%,96.469116%);fill-opacity:1;" d="M 482.410156 349.117188 C 482.410156 363.75 470.488281 375.65625 455.828125 375.65625 C 441.167969 375.65625 429.246094 363.75 429.246094 349.117188 C 429.246094 334.480469 441.167969 322.578125 455.828125 322.578125 C 470.488281 322.578125 482.410156 334.480469 482.410156 349.117188 "/>
<g clip-path="url(#clip2)" clip-rule="nonzero">
<path style=" stroke:none;fill-rule:nonzero;fill:rgb(17.248535%,23.919678%,32.548523%);fill-opacity:1;" d="M 73.816406 326.300781 C 72.804688 317.578125 72.292969 308.675781 72.292969 299.832031 L 72.300781 297.898438 C 72.316406 293.710938 68.929688 290.289062 64.671875 290.25 C 60.53125 290.25 57.164062 293.570312 57.113281 297.769531 C 57.113281 302.816406 57.179688 307.863281 57.449219 312.902344 C 57.699219 317.644531 58.089844 322.355469 58.621094 327.125 C 58.648438 327.347656 58.671875 327.566406 58.710938 327.886719 C 58.714844 327.941406 58.722656 327.996094 58.730469 328.050781 C 59.179688 331.914062 62.460938 334.753906 66.261719 334.753906 C 66.554688 334.753906 66.851562 334.738281 67.144531 334.707031 C 71.3125 334.222656 74.300781 330.460938 73.816406 326.300781 "/>
</g>
<path style=" stroke:none;fill-rule:nonzero;fill:rgb(17.248535%,23.919678%,32.548523%);fill-opacity:1;" d="M 82.679688 367.945312 C 81.660156 364.703125 78.667969 362.628906 75.433594 362.628906 C 74.683594 362.628906 73.917969 362.738281 73.160156 362.976562 C 69.164062 364.226562 66.9375 368.464844 68.175781 372.457031 C 71.121094 381.941406 74.867188 391.617188 79.070312 400.773438 C 80.347656 403.558594 83.097656 405.199219 85.976562 405.199219 C 87.035156 405.199219 88.113281 404.976562 89.136719 404.507812 C 92.949219 402.765625 94.625 398.265625 92.878906 394.457031 C 88.9375 385.871094 85.503906 376.949219 82.679688 367.945312 "/>
<path style=" stroke:none;fill-rule:nonzero;fill:rgb(17.248535%,23.919678%,32.548523%);fill-opacity:1;" d="M 116.46875 165.199219 C 118.953125 161.828125 118.226562 157.078125 114.847656 154.597656 C 113.496094 153.605469 111.917969 153.125 110.355469 153.125 C 108.023438 153.125 105.726562 154.191406 104.238281 156.207031 C 101.441406 159.992188 98.761719 163.867188 96.199219 167.8125 C 93.625 171.773438 91.144531 175.851562 88.789062 179.964844 C 88.457031 180.539062 88.125 181.125 87.800781 181.707031 C 85.757812 185.363281 87.070312 189.980469 90.730469 192.019531 C 91.902344 192.671875 93.171875 192.984375 94.425781 192.984375 C 97.089844 192.984375 99.671875 191.582031 101.0625 189.09375 C 105.671875 180.855469 110.855469 172.816406 116.46875 165.199219 "/>
<path style=" stroke:none;fill-rule:nonzero;fill:rgb(17.248535%,23.919678%,32.548523%);fill-opacity:1;" d="M 488.277344 171.492188 C 489.746094 173.636719 492.128906 174.789062 494.550781 174.789062 C 496.03125 174.789062 497.523438 174.359375 498.835938 173.460938 C 502.289062 171.101562 503.175781 166.398438 500.824219 162.945312 C 495.132812 154.582031 488.847656 146.59375 482.132812 139.027344 C 480.628906 137.335938 478.542969 136.472656 476.445312 136.472656 C 474.65625 136.472656 472.859375 137.097656 471.414062 138.378906 C 468.269531 141.15625 467.980469 145.949219 470.761719 149.082031 C 477.039062 156.160156 482.933594 163.699219 488.277344 171.492188 "/>
<path style=" stroke:none;fill-rule:nonzero;fill:rgb(17.248535%,23.919678%,32.548523%);fill-opacity:1;" d="M 416.078125 103.976562 C 424.210938 108.785156 432.132812 114.164062 439.617188 119.957031 C 441 121.027344 442.640625 121.546875 444.265625 121.546875 C 446.53125 121.546875 448.777344 120.535156 450.269531 118.609375 C 452.835938 115.304688 452.238281 110.550781 448.933594 107.980469 C 440.9375 101.789062 432.527344 96.074219 423.820312 90.925781 C 422.605469 90.210938 421.273438 89.867188 419.953125 89.867188 C 417.359375 89.867188 414.832031 91.195312 413.414062 93.585938 C 411.277344 97.1875 412.46875 101.839844 416.078125 103.976562 "/>
<g clip-path="url(#clip3)" clip-rule="nonzero">
<path style=" stroke:none;fill-rule:nonzero;fill:rgb(17.248535%,23.919678%,32.548523%);fill-opacity:1;" d="M 526.863281 277.199219 C 526.921875 277.78125 526.941406 278.367188 526.996094 278.953125 C 533.183594 284.835938 538.628906 291.46875 543.160156 297.757812 C 543.027344 290.394531 542.707031 283.042969 541.984375 275.714844 C 541.597656 271.800781 538.292969 268.875 534.433594 268.875 C 534.183594 268.875 533.933594 268.886719 533.679688 268.914062 C 529.503906 269.324219 526.457031 273.035156 526.863281 277.199219 "/>
</g>
<path style=" stroke:none;fill-rule:nonzero;fill:rgb(17.248535%,23.919678%,32.548523%);fill-opacity:1;" d="M 518.71875 235.410156 C 519.691406 238.707031 522.71875 240.847656 525.996094 240.847656 C 526.707031 240.847656 527.433594 240.75 528.148438 240.535156 C 532.171875 239.355469 534.46875 235.140625 533.289062 231.128906 C 530.421875 221.421875 526.945312 211.898438 522.882812 202.632812 C 521.628906 199.792969 518.847656 198.101562 515.925781 198.101562 C 514.910156 198.101562 513.875 198.304688 512.886719 198.738281 C 509.042969 200.417969 507.292969 204.886719 508.972656 208.722656 C 512.765625 217.378906 516.042969 226.355469 518.71875 235.410156 "/>
<path style=" stroke:none;fill-rule:nonzero;fill:rgb(17.248535%,23.919678%,32.548523%);fill-opacity:1;" d="M 114.203125 431.339844 C 112.722656 429.257812 110.382812 428.144531 108.003906 428.144531 C 106.484375 428.144531 104.949219 428.601562 103.613281 429.542969 C 100.199219 431.96875 99.390625 436.691406 101.808594 440.105469 C 107.636719 448.332031 113.996094 456.179688 120.820312 463.613281 C 120.84375 463.640625 120.867188 463.664062 120.898438 463.695312 C 122.394531 465.328125 124.441406 466.152344 126.5 466.152344 C 128.332031 466.152344 130.167969 465.496094 131.625 464.164062 C 134.71875 461.332031 134.929688 456.539062 132.09375 453.449219 C 125.699219 446.480469 119.679688 439.039062 114.203125 431.339844 "/>
<path style=" stroke:none;fill-rule:nonzero;fill:rgb(17.248535%,23.919678%,32.548523%);fill-opacity:1;" d="M 67.6875 261.484375 C 68.1875 261.585938 68.679688 261.632812 69.167969 261.632812 C 72.722656 261.632812 75.894531 259.128906 76.609375 255.515625 C 78.441406 246.25 80.882812 237.007812 83.863281 228.050781 C 85.1875 224.078125 83.03125 219.789062 79.050781 218.46875 C 78.257812 218.203125 77.449219 218.078125 76.65625 218.078125 C 73.480469 218.078125 70.519531 220.082031 69.457031 223.25 C 66.269531 232.734375 63.660156 242.699219 61.703125 252.605469 C 60.90625 256.707031 63.582031 260.675781 67.6875 261.484375 "/>
<path style=" stroke:none;fill-rule:nonzero;fill:rgb(17.248535%,23.919678%,32.548523%);fill-opacity:1;" d="M 270.761719 74.171875 C 271.074219 74.171875 271.390625 74.152344 271.707031 74.113281 C 281.070312 72.949219 290.632812 72.363281 300.136719 72.363281 C 302.707031 72.363281 305.308594 72.40625 307.875 72.492188 C 307.960938 72.492188 308.046875 72.496094 308.132812 72.496094 C 312.210938 72.496094 315.582031 69.261719 315.71875 65.164062 C 315.855469 60.988281 312.589844 57.488281 308.410156 57.332031 C 295.636719 56.863281 282.566406 57.453125 269.8125 59.066406 C 265.660156 59.59375 262.714844 63.375 263.234375 67.527344 C 263.710938 71.363281 266.984375 74.171875 270.761719 74.171875 "/>
<g clip-path="url(#clip4)" clip-rule="nonzero">
<path style=" stroke:none;fill-rule:nonzero;fill:rgb(17.248535%,23.919678%,32.548523%);fill-opacity:1;" d="M 325.546875 525.949219 C 325.273438 525.949219 325 525.964844 324.726562 525.996094 C 316.617188 526.863281 308.34375 527.304688 300.132812 527.304688 C 298.839844 527.304688 297.550781 527.292969 296.261719 527.269531 C 296.21875 527.269531 296.175781 527.269531 296.132812 527.269531 C 292 527.269531 288.609375 530.582031 288.542969 534.726562 C 288.472656 538.90625 291.804688 542.351562 295.988281 542.433594 C 306.121094 542.601562 316.269531 542.15625 326.347656 541.074219 C 330.515625 540.625 333.535156 536.890625 333.089844 532.722656 C 332.671875 528.835938 329.375 525.949219 325.546875 525.949219 "/>
</g>
<path style=" stroke:none;fill-rule:nonzero;fill:rgb(17.248535%,23.919678%,32.548523%);fill-opacity:1;" d="M 350.195312 77.867188 C 359.425781 79.933594 368.617188 82.605469 377.507812 85.808594 C 378.359375 86.117188 379.230469 86.261719 380.089844 86.261719 C 383.199219 86.261719 386.117188 84.339844 387.234375 81.25 C 388.652344 77.316406 386.617188 72.976562 382.683594 71.550781 C 373.171875 68.101562 363.386719 65.273438 353.519531 63.070312 C 352.957031 62.945312 352.402344 62.882812 351.847656 62.882812 C 348.371094 62.882812 345.238281 65.28125 344.445312 68.808594 C 343.527344 72.894531 346.101562 76.949219 350.195312 77.867188 "/>
<path style=" stroke:none;fill-rule:nonzero;fill:rgb(17.248535%,23.919678%,32.548523%);fill-opacity:1;" d="M 396.257812 506.882812 C 395.222656 506.882812 394.167969 507.09375 393.160156 507.546875 C 384.523438 511.40625 375.558594 514.757812 366.511719 517.5 C 362.5 518.71875 360.234375 522.953125 361.457031 526.960938 C 362.453125 530.234375 365.464844 532.339844 368.722656 532.339844 C 369.453125 532.339844 370.195312 532.234375 370.933594 532.011719 C 380.6875 529.050781 390.175781 525.496094 399.367188 521.386719 C 403.195312 519.675781 404.910156 515.1875 403.195312 511.367188 C 401.929688 508.550781 399.160156 506.882812 396.257812 506.882812 "/>
<path style=" stroke:none;fill-rule:nonzero;fill:rgb(17.248535%,23.919678%,32.548523%);fill-opacity:1;" d="M 200.382812 94.441406 C 201.464844 94.441406 202.558594 94.214844 203.601562 93.722656 C 212.171875 89.714844 221.074219 86.214844 230.070312 83.316406 C 234.0625 82.03125 236.253906 77.753906 234.964844 73.769531 C 233.925781 70.5625 230.945312 68.515625 227.738281 68.515625 C 226.972656 68.515625 226.195312 68.632812 225.425781 68.878906 C 215.71875 72.007812 206.265625 75.730469 197.136719 80 C 193.351562 81.789062 191.726562 86.289062 193.5 90.074219 C 194.792969 92.828125 197.527344 94.441406 200.382812 94.441406 "/>
<path style=" stroke:none;fill-rule:nonzero;fill:rgb(17.248535%,23.919678%,32.548523%);fill-opacity:1;" d="M 253.847656 522.609375 C 244.585938 520.699219 235.351562 518.183594 226.40625 515.132812 C 225.59375 514.855469 224.761719 514.722656 223.949219 514.722656 C 220.792969 514.722656 217.839844 516.707031 216.761719 519.855469 C 215.410156 523.8125 217.515625 528.113281 221.472656 529.472656 C 231.039062 532.769531 240.894531 535.425781 250.808594 537.464844 C 251.316406 537.570312 251.824219 537.617188 252.324219 537.617188 C 255.851562 537.617188 259.011719 535.152344 259.753906 531.566406 C 260.601562 527.464844 257.957031 523.453125 253.847656 522.609375 "/>
<path style=" stroke:none;fill-rule:nonzero;fill:rgb(17.248535%,23.919678%,32.548523%);fill-opacity:1;" d="M 187.535156 497.628906 C 179.316406 492.957031 171.308594 487.714844 163.726562 482.046875 C 162.363281 481.027344 160.765625 480.535156 159.183594 480.535156 C 156.871094 480.535156 154.585938 481.585938 153.097656 483.574219 C 150.582031 486.925781 151.265625 491.679688 154.625 494.1875 C 162.710938 500.234375 171.191406 505.789062 180.015625 510.804688 C 181.203125 511.480469 182.492188 511.800781 183.765625 511.800781 C 186.40625 511.800781 188.972656 510.425781 190.371094 507.972656 C 192.449219 504.332031 191.175781 499.703125 187.535156 497.628906 "/>
<path style=" stroke:none;fill-rule:nonzero;fill:rgb(17.248535%,23.919678%,32.548523%);fill-opacity:1;" d="M 139.667969 135.414062 C 141.523438 135.414062 143.382812 134.738281 144.84375 133.378906 C 151.773438 126.933594 159.171875 120.863281 166.839844 115.328125 C 170.242188 112.878906 171.003906 108.136719 168.546875 104.742188 C 167.0625 102.691406 164.742188 101.601562 162.386719 101.601562 C 160.84375 101.601562 159.289062 102.070312 157.945312 103.039062 C 152.277344 107.125 146.789062 111.457031 141.492188 116.015625 C 139.117188 118.0625 136.777344 120.15625 134.480469 122.292969 C 131.421875 125.148438 131.253906 129.941406 134.113281 133 C 135.609375 134.605469 137.636719 135.414062 139.667969 135.414062 "/>
<path style=" stroke:none;fill-rule:nonzero;fill:rgb(47.839355%,79.60968%,34.509277%);fill-opacity:1;" d="M 241.542969 295.738281 C 241.0625 302.191406 241.683594 307.3125 243.519531 311.382812 C 245.5 315.753906 248.878906 318.914062 253.808594 321.214844 L 255.476562 322.011719 C 261.636719 324.910156 266.277344 327.050781 271.554688 327.050781 C 271.941406 327.050781 272.328125 327.039062 272.71875 327.015625 C 272.832031 326.996094 272.960938 326.972656 273.105469 326.949219 C 273.132812 326.941406 273.15625 326.9375 273.1875 326.933594 C 273.210938 326.929688 273.238281 326.925781 273.265625 326.921875 C 273.292969 326.917969 273.320312 326.910156 273.34375 326.910156 C 273.378906 326.902344 273.410156 326.898438 273.445312 326.890625 C 273.496094 326.882812 273.550781 326.875 273.605469 326.867188 C 273.707031 326.851562 273.8125 326.835938 273.921875 326.820312 C 273.925781 326.816406 273.925781 326.816406 273.929688 326.816406 C 275.542969 326.582031 278.078125 326.304688 281.082031 326.304688 C 287.644531 326.304688 296.472656 327.617188 302.980469 333.5 C 304.972656 335.28125 307.0625 337.804688 308.585938 341.296875 C 309.589844 343.582031 310.359375 346.277344 310.699219 349.445312 C 311.882812 336.839844 307.1875 329.699219 302.980469 325.914062 C 296.472656 320.035156 287.644531 318.722656 281.082031 318.722656 C 277.15625 318.722656 274.039062 319.191406 272.71875 319.433594 C 272.328125 319.457031 271.941406 319.46875 271.554688 319.46875 C 266.277344 319.46875 261.636719 317.328125 255.476562 314.429688 L 253.808594 313.632812 C 246.25 310.109375 242.339844 304.574219 241.542969 295.738281 "/>
<path style=" stroke:none;fill-rule:nonzero;fill:rgb(20.779419%,32.159424%,29.019165%);fill-opacity:1;" d="M 308.589844 341.296875 C 309.597656 343.597656 310.359375 346.324219 310.691406 349.535156 C 310.695312 349.503906 310.699219 349.476562 310.699219 349.445312 C 310.359375 346.273438 309.59375 343.578125 308.589844 341.296875 M 273.1875 326.933594 C 273.160156 326.9375 273.132812 326.941406 273.105469 326.945312 C 273.132812 326.941406 273.160156 326.9375 273.1875 326.933594 M 273.347656 326.90625 C 273.320312 326.910156 273.292969 326.914062 273.269531 326.921875 C 273.292969 326.914062 273.320312 326.910156 273.347656 326.90625 M 273.921875 326.816406 C 273.8125 326.835938 273.710938 326.847656 273.609375 326.863281 C 273.710938 326.847656 273.8125 326.835938 273.921875 326.816406 M 281.082031 326.304688 C 278.078125 326.304688 275.546875 326.578125 273.929688 326.816406 C 275.546875 326.578125 278.074219 326.304688 281.082031 326.304688 C 287.644531 326.304688 296.476562 327.617188 302.984375 333.496094 C 296.476562 327.617188 287.648438 326.304688 281.082031 326.304688 M 243.519531 311.382812 C 245.496094 315.757812 248.871094 318.917969 253.808594 321.214844 C 248.878906 318.914062 245.5 315.75 243.519531 311.382812 "/>
<path style=" stroke:none;fill-rule:nonzero;fill:rgb(47.839355%,79.60968%,34.509277%);fill-opacity:1;" d="M 310.828125 350.945312 C 310.867188 351.621094 310.894531 352.320312 310.894531 353.039062 C 310.90625 354.339844 310.839844 355.699219 310.699219 357.152344 C 310.699219 357.179688 310.695312 357.207031 310.691406 357.230469 C 310.683594 357.316406 310.679688 357.402344 310.679688 357.492188 C 310.679688 358.667969 311.386719 360.164062 312.554688 362.386719 C 313.425781 364.09375 314.414062 366.027344 315.132812 368.261719 C 316.957031 373.910156 317.148438 379.523438 317.335938 384.945312 C 317.449219 388.699219 317.566406 392.261719 318.246094 395.410156 C 319.957031 403.519531 322.878906 409.777344 326.90625 413.945312 C 327.78125 414.859375 328.855469 415.226562 330.027344 415.226562 C 332.503906 415.226562 335.40625 413.5625 337.730469 411.863281 C 343.5 407.691406 350.035156 402.609375 354.742188 396.773438 C 357.4375 393.398438 359.410156 390.707031 360.285156 387.710938 C 360.738281 388.851562 361.234375 389.984375 361.765625 391.160156 C 360.664062 388.621094 359.679688 386.082031 358.804688 383.503906 C 357.777344 385.285156 356.414062 387.105469 354.742188 389.191406 C 350.035156 395.027344 343.5 400.109375 337.730469 404.277344 C 335.40625 405.980469 332.503906 407.644531 330.027344 407.644531 C 328.855469 407.644531 327.78125 407.273438 326.90625 406.367188 C 322.878906 402.195312 319.957031 395.9375 318.246094 387.824219 C 317.566406 384.679688 317.449219 381.117188 317.335938 377.363281 C 317.148438 371.941406 316.957031 366.328125 315.132812 360.683594 C 314.414062 358.445312 313.425781 356.511719 312.554688 354.804688 C 311.703125 353.179688 311.105469 351.953125 310.828125 350.945312 "/>
<path style=" stroke:none;fill-rule:nonzero;fill:rgb(20.779419%,32.159424%,29.019165%);fill-opacity:1;" d="M 310.699219 357.152344 C 310.695312 357.179688 310.695312 357.207031 310.691406 357.230469 C 310.683594 357.316406 310.679688 357.402344 310.679688 357.492188 C 310.679688 357.402344 310.683594 357.316406 310.691406 357.230469 C 310.695312 357.207031 310.695312 357.179688 310.699219 357.152344 M 310.804688 350.859375 C 310.859375 351.570312 310.890625 352.292969 310.894531 353.035156 C 310.894531 352.320312 310.871094 351.621094 310.824219 350.945312 C 310.820312 350.914062 310.8125 350.890625 310.804688 350.859375 "/>
<path style=" stroke:none;fill-rule:nonzero;fill:rgb(42.349243%,70.979309%,68.238831%);fill-opacity:1;" d="M 192.117188 414.375 C 191.890625 414.644531 191.65625 414.902344 191.417969 415.160156 C 190.46875 416.105469 189.289062 417.132812 187.847656 418.042969 C 199.050781 428.65625 211.769531 437.679688 225.632812 444.84375 C 227.519531 443.660156 229.597656 442.480469 231.863281 441.339844 C 232.285156 441.128906 232.710938 440.917969 233.144531 440.710938 C 230.792969 439.648438 228.289062 438.511719 225.632812 437.261719 C 213.523438 431.007812 202.25 423.320312 192.117188 414.375 "/>
<path style=" stroke:none;fill-rule:nonzero;fill:rgb(14.898682%,24.308777%,29.019165%);fill-opacity:1;" d="M 233.144531 440.707031 C 232.710938 440.917969 232.285156 441.128906 231.863281 441.34375 C 232.285156 441.128906 232.714844 440.921875 233.148438 440.710938 C 233.148438 440.710938 233.144531 440.710938 233.144531 440.707031 M 192.097656 414.363281 C 191.910156 414.628906 191.644531 414.894531 191.417969 415.160156 C 190.464844 416.105469 189.289062 417.128906 187.847656 418.042969 C 189.289062 417.128906 190.464844 416.105469 191.417969 415.160156 C 191.65625 414.902344 191.890625 414.640625 192.117188 414.378906 C 192.109375 414.371094 192.105469 414.367188 192.097656 414.363281 "/>
<path style=" stroke:none;fill-rule:nonzero;fill:rgb(42.349243%,70.979309%,68.238831%);fill-opacity:1;" d="M 385.351562 431.234375 C 366.210938 442.949219 344.449219 450.871094 321.210938 453.90625 C 319.160156 454.054688 317.414062 454.132812 315.933594 454.132812 C 317.527344 456.066406 319.125 458.152344 320.644531 460.425781 C 320.871094 460.765625 321.058594 461.109375 321.210938 461.488281 C 345.855469 458.265625 368.753906 449.582031 388.730469 436.65625 C 387.511719 434.722656 386.414062 432.941406 385.351562 431.234375 "/>
<path style=" stroke:none;fill-rule:nonzero;fill:rgb(20.779419%,32.159424%,29.019165%);fill-opacity:1;" d="M 136.886719 296.34375 C 136.847656 297.480469 136.847656 298.65625 136.847656 299.832031 C 136.847656 298.683594 136.859375 297.535156 136.886719 296.390625 C 136.886719 296.375 136.886719 296.359375 136.886719 296.34375 "/>
<path style=" stroke:none;fill-rule:nonzero;fill:rgb(47.839355%,79.60968%,34.509277%);fill-opacity:1;" d="M 136.886719 296.390625 C 136.859375 297.535156 136.847656 298.683594 136.847656 299.832031 C 136.847656 340.25 151.695312 377.285156 176.1875 405.796875 C 176.390625 405.808594 176.59375 405.8125 176.800781 405.8125 C 178.195312 405.8125 179.570312 405.5625 180.367188 404.734375 C 181.960938 403.027344 182.527344 398.59375 181.808594 393.703125 C 181.539062 395.21875 181.050781 396.433594 180.367188 397.152344 C 179.570312 397.980469 178.199219 398.230469 176.800781 398.230469 C 176.597656 398.230469 176.390625 398.222656 176.1875 398.214844 C 152.539062 370.660156 137.882812 335.195312 136.886719 296.390625 "/>
<path style=" stroke:none;fill-rule:nonzero;fill:rgb(52.549744%,63.139343%,56.858826%);fill-opacity:1;" d="M 202.394531 187.285156 C 202.449219 188.011719 202.480469 188.730469 202.480469 189.441406 C 202.480469 190.585938 202.398438 191.699219 202.199219 192.757812 C 202.199219 192.761719 202.199219 192.765625 202.199219 192.769531 C 202.527344 191.0625 202.542969 189.203125 202.394531 187.285156 "/>
<path style=" stroke:none;fill-rule:nonzero;fill:rgb(70.588684%,88.62915%,59.609985%);fill-opacity:1;" d="M 200.113281 171.121094 C 200.070312 171.152344 200.03125 171.183594 199.988281 171.21875 C 179.863281 186.863281 163.488281 207.128906 152.457031 230.398438 C 152.03125 231.296875 151.613281 232.199219 151.203125 233.105469 C 151.960938 232.957031 153.632812 232.386719 156.671875 229.808594 C 167.453125 209.90625 182.339844 192.503906 200.113281 178.703125 C 200.570312 181.089844 200.910156 183.824219 201.136719 185.378906 C 201.289062 186.816406 201.480469 188.144531 201.632812 189.167969 C 201.820312 190.375 202.046875 191.546875 202.199219 192.753906 C 202.398438 191.699219 202.484375 190.585938 202.484375 189.441406 C 202.484375 188.730469 202.449219 188.011719 202.394531 187.28125 C 202.25 185.410156 201.949219 183.476562 201.632812 181.585938 C 201.480469 180.5625 201.289062 179.234375 201.136719 177.792969 C 200.914062 176.257812 200.574219 173.574219 200.128906 171.207031 C 200.121094 171.179688 200.117188 171.148438 200.113281 171.121094 "/>
<path style=" stroke:none;fill-rule:nonzero;fill:rgb(74.119568%,91.369629%,90.979004%);fill-opacity:1;" d="M 278.261719 138.328125 C 254.644531 141.476562 232.617188 149.703125 213.289062 161.871094 C 213.457031 162.300781 213.617188 162.742188 213.765625 163.195312 C 214.066406 164.117188 214.332031 165.085938 214.574219 166.101562 C 214.75 166.828125 214.914062 167.578125 215.074219 168.355469 C 233.945312 156.792969 255.324219 148.984375 278.222656 145.910156 C 278.300781 144.851562 278.300781 143.636719 278.300781 142.351562 L 278.300781 141.359375 C 278.300781 141.355469 278.300781 141.34375 278.300781 141.335938 C 278.300781 141.03125 278.308594 140.578125 278.308594 140.058594 C 278.308594 139.523438 278.300781 138.917969 278.261719 138.328125 "/>
<path style=" stroke:none;fill-rule:nonzero;fill:rgb(45.098877%,54.508972%,59.609985%);fill-opacity:1;" d="M 213.761719 163.195312 C 214.066406 164.117188 214.328125 165.085938 214.574219 166.101562 C 214.332031 165.085938 214.066406 164.113281 213.761719 163.195312 M 278.300781 141.363281 L 278.300781 142.347656 L 278.300781 141.363281 M 278.308594 140.058594 C 278.308594 140.578125 278.300781 141.03125 278.300781 141.332031 C 278.300781 141.03125 278.308594 140.578125 278.308594 140.058594 "/>
<path style=" stroke:none;fill-rule:nonzero;fill:rgb(74.119568%,91.369629%,90.979004%);fill-opacity:1;" d="M 300.136719 136.8125 C 297.855469 136.8125 295.613281 136.890625 293.414062 136.964844 C 293.488281 138.019531 293.511719 139.03125 293.511719 139.945312 C 293.511719 140.476562 293.503906 140.980469 293.488281 141.4375 L 293.488281 142.269531 C 293.492188 142.988281 293.5 143.75 293.492188 144.546875 C 295.65625 144.472656 297.894531 144.394531 300.136719 144.394531 C 311.863281 144.394531 323.324219 145.683594 334.371094 148.03125 C 334.886719 146.808594 335.480469 145.644531 336.136719 144.535156 C 336.800781 143.398438 337.53125 142.324219 338.296875 141.324219 C 326.070312 138.40625 313.273438 136.8125 300.136719 136.8125 "/>
<path style=" stroke:none;fill-rule:nonzero;fill:rgb(45.098877%,54.508972%,59.609985%);fill-opacity:1;" d="M 336.136719 144.535156 C 335.480469 145.644531 334.886719 146.808594 334.371094 148.03125 C 334.375 148.03125 334.382812 148.035156 334.390625 148.035156 C 334.890625 146.816406 335.484375 145.644531 336.136719 144.535156 M 293.488281 142.269531 L 293.488281 144.546875 C 293.488281 144.546875 293.488281 144.546875 293.492188 144.546875 C 293.5 143.75 293.492188 142.988281 293.488281 142.269531 M 293.511719 139.945312 C 293.511719 140.476562 293.503906 140.980469 293.488281 141.4375 C 293.503906 140.980469 293.511719 140.476562 293.511719 139.945312 M 300.136719 136.8125 C 297.855469 136.8125 295.613281 136.890625 293.414062 136.964844 C 295.613281 136.890625 297.855469 136.8125 300.136719 136.8125 C 313.273438 136.8125 326.070312 138.40625 338.296875 141.324219 C 326.070312 138.40625 313.273438 136.8125 300.136719 136.8125 "/>
<path style=" stroke:none;fill-rule:nonzero;fill:rgb(70.588684%,88.62915%,59.609985%);fill-opacity:1;" d="M 354.855469 146.253906 C 352.523438 147.847656 347.445312 152.011719 347.4375 158.429688 C 347.433594 159.332031 347.53125 160.277344 347.753906 161.265625 C 347.84375 161.546875 347.953125 161.890625 348.066406 162.296875 C 349.480469 157.953125 353.035156 155.085938 354.855469 153.835938 C 399.964844 169.910156 436.003906 205.246094 452.902344 249.90625 C 453.851562 249.980469 454.761719 250.054688 455.636719 250.132812 C 440.105469 201.792969 402.550781 163.277344 354.855469 146.253906 "/>
<path style=" stroke:none;fill-rule:nonzero;fill:rgb(52.549744%,63.139343%,56.858826%);fill-opacity:1;" d="M 347.753906 161.265625 C 347.828125 161.53125 347.945312 161.910156 348.058594 162.328125 C 348.0625 162.3125 348.066406 162.304688 348.070312 162.292969 C 347.953125 161.890625 347.847656 161.542969 347.753906 161.265625 M 354.855469 146.253906 C 352.523438 147.847656 347.449219 152.011719 347.4375 158.429688 C 347.449219 152.011719 352.523438 147.847656 354.855469 146.253906 "/>
<path style=" stroke:none;fill-rule:nonzero;fill:rgb(20.779419%,32.159424%,29.019165%);fill-opacity:1;" d="M 243.746094 452.632812 C 243.746094 452.632812 243.742188 452.636719 243.742188 452.636719 C 243.742188 452.636719 243.746094 452.632812 243.746094 452.632812 M 243.824219 452.601562 C 243.820312 452.605469 243.8125 452.605469 243.808594 452.609375 C 243.8125 452.605469 243.820312 452.605469 243.824219 452.601562 M 243.902344 452.570312 C 243.894531 452.574219 243.882812 452.578125 243.875 452.582031 C 243.882812 452.578125 243.894531 452.574219 243.902344 452.570312 M 243.980469 452.539062 C 243.976562 452.539062 243.972656 452.539062 243.96875 452.542969 C 243.972656 452.539062 243.976562 452.539062 243.980469 452.539062 M 244.0625 452.503906 C 244.050781 452.507812 244.042969 452.511719 244.03125 452.519531 C 244.042969 452.511719 244.050781 452.507812 244.0625 452.503906 M 244.140625 452.472656 C 244.125 452.476562 244.109375 452.484375 244.09375 452.492188 C 244.109375 452.484375 244.128906 452.476562 244.140625 452.472656 M 244.222656 452.4375 C 244.203125 452.449219 244.183594 452.457031 244.160156 452.464844 C 244.179688 452.457031 244.203125 452.445312 244.222656 452.4375 M 255.023438 448.902344 C 251.039062 449.886719 247.351562 451.164062 244.230469 452.433594 C 247.375 451.15625 251.046875 449.886719 255.070312 448.914062 C 255.054688 448.910156 255.039062 448.90625 255.023438 448.902344 "/>
<path style=" stroke:none;fill-rule:nonzero;fill:rgb(47.839355%,79.60968%,34.509277%);fill-opacity:1;" d="M 255.070312 448.914062 C 251.046875 449.886719 247.375 451.15625 244.230469 452.433594 C 244.230469 452.4375 244.226562 452.4375 244.222656 452.4375 C 244.203125 452.445312 244.179688 452.453125 244.164062 452.464844 C 244.15625 452.464844 244.148438 452.46875 244.140625 452.472656 C 244.128906 452.476562 244.109375 452.484375 244.09375 452.492188 C 244.085938 452.496094 244.074219 452.5 244.0625 452.503906 C 244.050781 452.507812 244.039062 452.511719 244.03125 452.515625 C 244.015625 452.523438 244 452.53125 243.980469 452.535156 C 243.976562 452.539062 243.972656 452.539062 243.96875 452.542969 C 243.945312 452.550781 243.925781 452.558594 243.90625 452.570312 C 243.894531 452.574219 243.882812 452.578125 243.875 452.582031 C 243.855469 452.589844 243.839844 452.59375 243.828125 452.601562 C 243.820312 452.605469 243.8125 452.605469 243.808594 452.609375 C 243.785156 452.617188 243.769531 452.625 243.746094 452.632812 C 243.746094 452.632812 243.742188 452.636719 243.742188 452.636719 C 243.667969 452.667969 243.589844 452.699219 243.515625 452.730469 C 261.175781 459.289062 280.238281 462.851562 300.136719 462.851562 C 301.199219 462.851562 302.261719 462.8125 303.324219 462.777344 C 300.628906 459.742188 297.820312 457.203125 294.933594 455.195312 C 281.128906 454.738281 267.777344 452.621094 255.070312 448.914062 "/>
<path style=" stroke:none;fill-rule:nonzero;fill:rgb(38.42926%,23.529053%,26.669312%);fill-opacity:1;" d="M 527.867188 347.371094 C 527.863281 347.40625 527.859375 347.445312 527.859375 347.476562 C 527.9375 348.800781 527.976562 350.125 527.980469 351.464844 C 527.976562 350.101562 527.9375 348.734375 527.867188 347.371094 "/>
<path style=" stroke:none;fill-rule:nonzero;fill:rgb(82.348633%,30.198669%,26.669312%);fill-opacity:1;" d="M 527.859375 347.476562 C 527.9375 348.800781 527.976562 350.125 527.980469 351.464844 C 527.976562 350.125 527.9375 348.800781 527.859375 347.476562 "/>
<path style=" stroke:none;fill-rule:nonzero;fill:rgb(38.42926%,23.529053%,26.669312%);fill-opacity:1;" d="M 383.792969 347.5625 C 383.722656 348.816406 383.683594 350.066406 383.679688 351.347656 C 383.683594 350.082031 383.722656 348.824219 383.792969 347.570312 C 383.792969 347.570312 383.792969 347.566406 383.792969 347.5625 "/>
<path style=" stroke:none;fill-rule:nonzero;fill:rgb(82.348633%,30.198669%,26.669312%);fill-opacity:1;" d="M 383.792969 347.570312 C 383.722656 348.824219 383.683594 350.082031 383.679688 351.347656 C 383.679688 351.351562 383.679688 351.351562 383.679688 351.351562 C 383.683594 350.082031 383.722656 348.824219 383.792969 347.570312 "/>
<path style=" stroke:none;fill-rule:nonzero;fill:rgb(38.42926%,23.529053%,26.669312%);fill-opacity:1;" d="M 527.980469 351.6875 C 527.972656 354.785156 527.691406 358.015625 527.136719 361.289062 C 527.691406 358.015625 527.972656 354.78125 527.980469 351.6875 M 383.675781 351.582031 C 383.675781 362.398438 386.375 373.164062 391.726562 383.625 C 386.375 373.164062 383.675781 362.398438 383.675781 351.582031 "/>
<path style=" stroke:none;fill-rule:nonzero;fill:rgb(82.348633%,30.198669%,26.669312%);fill-opacity:1;" d="M 527.523438 351.097656 C 527.347656 352.5 527.121094 353.910156 526.839844 355.335938 C 524.371094 368.074219 518.484375 378.914062 513.929688 385.816406 C 513.890625 385.890625 513.816406 385.964844 455.832031 478.886719 C 439.15625 452.3125 396.019531 383.503906 395.5625 382.78125 C 389.152344 372.585938 385.316406 362.027344 384.109375 351.378906 C 383.972656 352.621094 383.863281 353.882812 383.792969 355.144531 C 383.71875 353.96875 383.675781 352.757812 383.675781 351.582031 C 383.675781 362.398438 386.375 373.164062 391.726562 383.625 C 392.878906 385.886719 394.160156 388.132812 395.5625 390.363281 C 396.019531 391.085938 439.15625 459.894531 455.832031 486.472656 C 513.816406 393.550781 513.890625 393.472656 513.929688 393.398438 C 518.484375 386.496094 524.371094 375.65625 526.839844 362.917969 C 526.945312 362.375 527.046875 361.828125 527.136719 361.289062 C 527.691406 358.015625 527.972656 354.785156 527.980469 351.6875 C 527.976562 352.753906 527.9375 353.855469 527.867188 354.957031 C 527.789062 353.660156 527.671875 352.375 527.523438 351.097656 "/>
<path style=" stroke:none;fill-rule:nonzero;fill:rgb(96.469116%,50.588989%,47.44873%);fill-opacity:1;" d="M 383.679688 351.347656 C 383.679688 351.359375 383.679688 351.371094 383.679688 351.386719 C 383.679688 351.371094 383.679688 351.359375 383.679688 351.347656 M 455.828125 280.875 C 452.449219 280.875 449.121094 281.101562 445.863281 281.550781 C 412.089844 286.140625 385.734375 313.722656 383.792969 347.570312 C 383.859375 348.84375 383.964844 350.109375 384.109375 351.378906 C 388.074219 316.046875 418.707031 288.460938 455.828125 288.460938 C 492.84375 288.460938 523.417969 315.890625 527.523438 351.097656 C 527.675781 349.882812 527.789062 348.675781 527.859375 347.480469 C 525.875 313.671875 499.535156 286.136719 465.792969 281.550781 C 462.535156 281.101562 459.207031 280.875 455.828125 280.875 "/>
<path style=" stroke:none;fill-rule:nonzero;fill:rgb(86.268616%,45.098877%,42.749023%);fill-opacity:1;" d="M 527.859375 347.480469 C 527.789062 348.675781 527.675781 349.882812 527.523438 351.097656 C 527.671875 352.375 527.785156 353.660156 527.863281 354.957031 C 527.9375 353.855469 527.976562 352.753906 527.980469 351.6875 C 527.980469 351.6875 527.980469 351.683594 527.980469 351.683594 C 527.980469 351.648438 527.980469 351.617188 527.980469 351.582031 C 527.980469 351.542969 527.980469 351.503906 527.980469 351.464844 C 527.976562 350.125 527.9375 348.800781 527.859375 347.480469 "/>
<path style=" stroke:none;fill-rule:nonzero;fill:rgb(86.268616%,45.098877%,42.749023%);fill-opacity:1;" d="M 383.792969 347.570312 C 383.722656 348.820312 383.683594 350.082031 383.679688 351.347656 C 383.679688 351.359375 383.679688 351.371094 383.679688 351.382812 C 383.679688 351.410156 383.679688 351.4375 383.679688 351.460938 C 383.679688 351.503906 383.679688 351.542969 383.679688 351.582031 C 383.679688 352.757812 383.714844 353.96875 383.792969 355.144531 C 383.863281 353.882812 383.972656 352.625 384.109375 351.378906 C 383.96875 350.109375 383.859375 348.839844 383.792969 347.570312 "/>
<path style=" stroke:none;fill-rule:nonzero;fill:rgb(37.249756%,43.528748%,49.798584%);fill-opacity:1;" d="M 429.335938 346.914062 C 429.269531 347.640625 429.246094 348.371094 429.246094 349.117188 C 429.246094 348.375 429.277344 347.640625 429.335938 346.914062 M 482.320312 346.910156 C 482.378906 347.640625 482.410156 348.375 482.410156 349.117188 C 482.410156 348.371094 482.386719 347.640625 482.320312 346.910156 "/>
<path style=" stroke:none;fill-rule:nonzero;fill:rgb(75.689697%,78.039551%,80.778503%);fill-opacity:1;" d="M 482.105469 345.328125 C 480.28125 358.179688 469.195312 368.074219 455.828125 368.074219 C 442.460938 368.074219 431.375 358.179688 429.550781 345.328125 C 429.453125 345.855469 429.382812 346.382812 429.335938 346.914062 C 429.277344 347.640625 429.246094 348.375 429.246094 349.117188 C 429.246094 363.75 441.167969 375.65625 455.828125 375.65625 C 470.488281 375.65625 482.410156 363.75 482.410156 349.117188 C 482.410156 348.375 482.378906 347.640625 482.320312 346.910156 C 482.273438 346.382812 482.203125 345.855469 482.105469 345.328125 "/>
</g>
</svg>
