<?xml version="1.0" encoding="UTF-8"?>
<svg xmlns="http://www.w3.org/2000/svg" xmlns:xlink="http://www.w3.org/1999/xlink" width="600pt" height="599.999999pt" viewBox="0 0 600 599.999999" version="1.2">
<g id="surface1">
<path style=" stroke:none;fill-rule:nonzero;fill:rgb(77.648926%,17.649841%,14.509583%);fill-opacity:1;" d="M 128.34375 141.59375 C 165.300781 96.402344 218.703125 72.703125 272.78125 71.984375 L 272.78125 71.933594 L 316.097656 71.933594 L 316.097656 76.414062 C 317.710938 76.769531 319.316406 77.15625 320.910156 77.546875 L 320.910156 506.316406 L 316.097656 512.207031 L 316.097656 548.996094 L 275.222656 548.996094 L 275.222656 548.992188 C 268.617188 548.992188 262.054688 546.136719 257.539062 540.621094 L 128.34375 382.644531 C 72.128906 313.996094 70.023438 212.90625 128.34375 141.59375 "/>
<path style=" stroke:none;fill-rule:nonzero;fill:rgb(94.119263%,21.958923%,21.569824%);fill-opacity:1;" d="M 169.222656 382.648438 L 298.421875 540.621094 C 306.410156 550.390625 320.796875 551.820312 330.550781 543.820312 C 331.703125 542.867188 332.824219 541.726562 333.734375 540.621094 L 462.9375 382.648438 C 529.390625 301.398438 517.503906 181.570312 436.398438 115.003906 C 355.285156 48.4375 235.664062 60.34375 169.222656 141.597656 C 110.898438 212.910156 113 313.996094 169.222656 382.648438 "/>
<path style=" stroke:none;fill-rule:nonzero;fill:rgb(100%,100%,100%);fill-opacity:1;" d="M 221.246094 269.085938 C 221.246094 321.558594 263.71875 364.097656 316.097656 364.097656 C 368.488281 364.097656 410.949219 321.558594 410.949219 269.085938 C 410.949219 216.613281 368.488281 174.074219 316.097656 174.074219 C 263.71875 174.074219 221.246094 216.613281 221.246094 269.085938 "/>
</g>
</svg>
