<?xml version="1.0" encoding="UTF-8"?>
<svg xmlns="http://www.w3.org/2000/svg" xmlns:xlink="http://www.w3.org/1999/xlink" width="600pt" height="599.999999pt" viewBox="0 0 600 599.999999" version="1.2">
<defs>
<clipPath id="clip1">
  <path d="M 229 157 L 460.433594 157 L 460.433594 535.496094 L 229 535.496094 Z M 229 157 "/>
</clipPath>
<clipPath id="clip2">
  <path d="M 176 64.496094 L 351 64.496094 L 351 190 L 176 190 Z M 176 64.496094 "/>
</clipPath>
</defs>
<g id="surface1">
<g clip-path="url(#clip1)" clip-rule="nonzero">
<path style=" stroke:none;fill-rule:nonzero;fill:rgb(28.239441%,70.979309%,39.219666%);fill-opacity:1;" d="M 434.554688 321.363281 L 434.667969 321.363281 C 434.667969 321.363281 391.4375 384.890625 355.089844 432.105469 C 323.667969 472.890625 314.496094 507.8125 311.859375 524.699219 C 310.828125 530.902344 305.78125 535.496094 299.703125 535.496094 C 293.625 535.496094 288.582031 530.902344 287.546875 524.699219 C 284.910156 507.8125 275.738281 472.890625 244.320312 432.105469 C 239.503906 425.789062 234.570312 419.242188 229.640625 412.578125 L 348.324219 271.277344 L 443.84375 157.777344 C 454.390625 179.949219 460.242188 204.761719 460.242188 231.070312 C 460.242188 264.386719 450.722656 295.289062 434.554688 321.363281 Z M 434.554688 321.363281 "/>
</g>
<path style=" stroke:none;fill-rule:nonzero;fill:rgb(98.81897%,77.648926%,5.488586%);fill-opacity:1;" d="M 348.324219 271.277344 L 229.640625 412.578125 C 197.304688 369.152344 164.738281 321.363281 164.738281 321.363281 L 164.851562 321.363281 C 161.414062 315.851562 158.316406 310.222656 155.679688 304.363281 L 251.082031 190.863281 C 242.023438 201.777344 236.636719 215.792969 236.636719 231.070312 C 236.636719 265.992188 264.84375 294.253906 299.703125 294.253906 C 319.3125 294.253906 336.855469 285.292969 348.324219 271.277344 Z M 348.324219 271.277344 "/>
<g clip-path="url(#clip2)" clip-rule="nonzero">
<path style=" stroke:none;fill-rule:nonzero;fill:rgb(17.248535%,52.159119%,92.158508%);fill-opacity:1;" d="M 350.15625 73 L 251.886719 189.945312 L 176.664062 124.234375 C 206.019531 87.703125 250.28125 64.496094 299.703125 64.496094 C 317.363281 64.496094 334.332031 67.484375 350.15625 73 Z M 350.15625 73 "/>
</g>
<path style=" stroke:none;fill-rule:nonzero;fill:rgb(92.939758%,34.118652%,28.239441%);fill-opacity:1;" d="M 251.886719 189.945312 L 251.082031 190.863281 L 155.679688 304.363281 C 145.128906 282.191406 139.167969 257.378906 139.167969 231.070312 C 139.167969 190.402344 153.269531 153.070312 176.664062 124.234375 Z M 251.886719 189.945312 "/>
<path style=" stroke:none;fill-rule:nonzero;fill:rgb(33.729553%,58.428955%,96.469116%);fill-opacity:1;" d="M 348.324219 271.277344 C 357.382812 260.363281 362.773438 246.347656 362.773438 231.070312 C 362.773438 196.148438 334.5625 167.886719 299.703125 167.886719 C 280.09375 167.886719 262.550781 176.847656 251.082031 190.863281 L 350.15625 73 C 391.324219 87.011719 425.035156 117.914062 443.84375 157.777344 Z M 348.324219 271.277344 "/>
</g>
</svg>
